<svg xmlns="http://www.w3.org/2000/svg" viewBox="0 0 1600 900" role="img" aria-labelledby="title desc">
  <title id="title">Arquivo literario sombrio</title>
  <desc id="desc">Ilustracao escura de uma biblioteca com livros, mesa, papeis e um detalhe vermelho discreto.</desc>
  <defs>
    <linearGradient id="room" x1="0" y1="0" x2="1" y2="1">
      <stop offset="0" stop-color="#2a201b"/>
      <stop offset="0.48" stop-color="#151211"/>
      <stop offset="1" stop-color="#080706"/>
    </linearGradient>
    <radialGradient id="lamp" cx="58%" cy="42%" r="48%">
      <stop offset="0" stop-color="#c89c55" stop-opacity="0.38"/>
      <stop offset="0.4" stop-color="#7b4d32" stop-opacity="0.16"/>
      <stop offset="1" stop-color="#000" stop-opacity="0"/>
    </radialGradient>
    <linearGradient id="paper" x1="0" y1="0" x2="1" y2="1">
      <stop offset="0" stop-color="#e7d8bd"/>
      <stop offset="1" stop-color="#9c8769"/>
    </linearGradient>
  </defs>
  <rect width="1600" height="900" fill="url(#room)"/>
  <rect width="1600" height="900" fill="url(#lamp)"/>
  <g opacity="0.34">
    <rect x="0" y="0" width="1600" height="900" fill="#060504"/>
    <path d="M0 100h1600M0 230h1600M0 360h1600M0 490h1600" stroke="#5b4638" stroke-width="5"/>
    <path d="M165 0v520M330 0v520M495 0v520M660 0v520M825 0v520M990 0v520M1155 0v520M1320 0v520M1485 0v520" stroke="#3d3029" stroke-width="4"/>
  </g>
  <g opacity="0.78">
    <rect x="115" y="52" width="52" height="304" fill="#49362d"/>
    <rect x="178" y="86" width="34" height="270" fill="#6c4638"/>
    <rect x="226" y="70" width="46" height="286" fill="#332923"/>
    <rect x="292" y="118" width="48" height="238" fill="#5f5141"/>
    <rect x="1098" y="58" width="42" height="308" fill="#4b332b"/>
    <rect x="1154" y="92" width="56" height="274" fill="#302721"/>
    <rect x="1224" y="74" width="40" height="292" fill="#72533d"/>
    <rect x="1282" y="110" width="55" height="256" fill="#49362d"/>
  </g>
  <path d="M0 610c275-60 492-81 740-50 288 36 558 8 860-55v395H0z" fill="#100d0b"/>
  <path d="M270 612c206-32 481-36 691-2 144 23 287 20 464-25" fill="none" stroke="#5d4331" stroke-width="8" opacity="0.48"/>
  <g transform="translate(515 520) rotate(-4)">
    <rect x="0" y="0" width="392" height="138" rx="5" fill="url(#paper)" opacity="0.95"/>
    <path d="M36 38h242M36 67h300M36 96h214" stroke="#4d382c" stroke-width="7" opacity="0.45"/>
  </g>
  <g transform="translate(830 548) rotate(7)">
    <rect x="0" y="0" width="300" height="112" rx="5" fill="#d8c49d" opacity="0.78"/>
    <path d="M28 36h205M28 64h248" stroke="#4d382c" stroke-width="6" opacity="0.38"/>
  </g>
  <g transform="translate(690 426)">
    <path d="M78 0h92l36 112H42z" fill="#2d211b"/>
    <ellipse cx="124" cy="114" rx="98" ry="24" fill="#090706"/>
    <circle cx="126" cy="76" r="34" fill="#ba343b" opacity="0.9"/>
    <path d="M126 44v64M96 76h60" stroke="#5b1116" stroke-width="7" opacity="0.55"/>
  </g>
  <path d="M0 0h1600v900H0z" fill="none" stroke="#000" stroke-width="36" opacity="0.36"/>
  <rect width="1600" height="900" fill="#000" opacity="0.08"/>
</svg>
